<?xml version="1.0" standalone="no"?>
<!DOCTYPE svg PUBLIC "-//W3C//DTD SVG 20010904//EN"
 "http://www.w3.org/TR/2001/REC-SVG-20010904/DTD/svg10.dtd">
<svg version="1.0" xmlns="http://www.w3.org/2000/svg"
 width="1000.000000pt" height="1000.000000pt" viewBox="0 0 1000.000000 1000.000000"
 preserveAspectRatio="xMidYMid meet">
<metadata>
Created by potrace 1.11, written by Peter Selinger 2001-2013
</metadata>
<g transform="translate(0.000000,1000.000000) scale(0.100000,-0.100000)"
fill="#000000" stroke="none">
<path d="M252 9643 c-1 -78 2 -102 11 -96 9 5 9 4 0 -8 -16 -20 -16 -242 0
-232 9 5 8 2 0 -8 -17 -20 -16 -242 0 -232 8 4 7 1 -1 -9 -18 -22 -17 -482 1
-471 9 5 9 3 0 -8 -16 -20 -16 -242 0 -232 9 5 8 2 0 -8 -17 -20 -16 -242 0
-232 8 4 7 1 -1 -9 -18 -22 -17 -482 1 -471 9 5 9 3 0 -8 -16 -20 -16 -242 0
-232 9 5 8 2 0 -8 -17 -20 -16 -242 0 -232 8 4 7 1 -1 -9 -18 -22 -17 -482 1
-471 9 5 9 3 0 -8 -16 -20 -16 -242 0 -232 9 5 8 2 0 -8 -17 -20 -16 -242 0
-232 8 4 7 1 -1 -9 -18 -22 -17 -482 1 -471 9 5 9 3 0 -8 -16 -20 -16 -242 0
-232 9 5 8 2 0 -8 -16 -20 -16 -242 0 -233 8 4 7 2 0 -7 -10 -10 -13 -74 -13
-247 0 -184 3 -232 13 -226 10 6 10 4 0 -7 -16 -17 -17 -43 -1 -33 7 5 8 3 2
-7 -12 -19 -12 -119 0 -126 5 -4 6 0 1 8 -5 8 -4 10 0 6 12 -11 15 -37 4 -37
-4 0 -5 -7 -2 -17 5 -12 3 -14 -8 -9 -11 6 -10 4 1 -6 9 -8 15 -30 15 -58 0
-25 4 -48 10 -53 6 -4 5 -10 -5 -17 -8 -5 -10 -10 -4 -10 12 0 12 -29 0 -48
-4 -7 -5 -16 -2 -19 3 -4 6 0 6 8 0 12 2 12 10 -1 6 -9 5 -17 -3 -22 -8 -5 -5
-8 8 -8 12 0 16 -3 9 -8 -11 -8 -14 -52 -3 -52 9 0 6 -27 -4 -36 -4 -4 -7 -12
-7 -18 0 -6 5 -4 11 4 9 12 10 11 6 -7 -3 -13 -2 -23 3 -23 13 0 20 -29 8 -36
-6 -4 -8 -3 -4 4 3 6 2 13 -3 16 -5 4 -8 -1 -7 -10 1 -8 9 -20 17 -25 12 -7
12 -9 -1 -9 -9 0 -11 -3 -5 -8 6 -4 10 -16 10 -27 0 -11 3 -28 8 -38 5 -11 4
-17 -5 -17 -9 0 -9 -3 -2 -8 5 -4 10 -18 10 -32 0 -14 5 -24 10 -23 5 1 9 -23
7 -53 -1 -30 3 -54 8 -54 6 0 7 5 3 12 -4 6 -3 8 3 5 5 -3 8 -20 5 -38 -4 -24
-2 -30 8 -24 8 5 11 4 6 -3 -11 -18 5 -93 18 -85 6 4 5 -1 -3 -10 -10 -13 -10
-17 -1 -17 7 0 10 -8 7 -20 -3 -11 -1 -20 4 -20 4 0 5 -7 2 -17 -5 -11 -3 -14
6 -8 10 5 11 2 6 -14 -4 -14 -2 -21 7 -21 10 0 9 -3 -2 -10 -8 -5 -10 -10 -3
-10 6 0 10 -8 9 -17 -2 -10 4 -21 13 -25 14 -6 14 -7 -2 -7 -15 -1 -16 -3 -5
-15 7 -8 16 -12 20 -10 3 2 4 -5 1 -16 -3 -11 2 -32 12 -46 9 -15 12 -24 7
-20 -12 7 9 -56 21 -65 5 -3 8 -9 8 -13 -4 -29 1 -56 9 -51 6 4 10 -5 10 -21
0 -15 8 -33 18 -41 16 -14 16 -14 -2 -8 -19 6 -19 5 -3 -13 9 -10 14 -22 10
-25 -3 -4 -1 -7 6 -7 7 0 10 -4 6 -9 -3 -5 2 -16 10 -24 11 -12 12 -17 2 -20
-9 -4 -9 -6 1 -6 6 -1 12 -10 12 -21 0 -11 5 -20 11 -20 5 0 8 -4 4 -9 -3 -5
-1 -12 4 -16 6 -3 8 -12 4 -20 -3 -10 1 -15 13 -15 16 0 17 -2 4 -10 -12 -7
-12 -10 -1 -10 8 0 11 -6 7 -15 -3 -9 1 -18 9 -21 8 -4 13 -10 10 -14 -3 -5
-1 -11 4 -15 6 -3 8 -12 4 -20 -3 -10 1 -15 13 -15 16 0 17 -2 4 -10 -10 -6
-11 -10 -2 -10 6 0 12 -7 12 -16 0 -8 4 -13 9 -9 6 3 8 -3 6 -15 -2 -11 1 -22
6 -25 5 -4 6 -11 3 -17 -5 -7 -2 -9 8 -6 11 5 15 0 14 -15 -1 -12 5 -28 14
-35 13 -12 13 -13 0 -7 -10 4 -9 2 3 -8 9 -8 17 -22 17 -31 0 -9 5 -16 11 -16
5 0 8 -4 5 -9 -3 -5 3 -20 14 -33 11 -14 16 -28 13 -32 -3 -3 -1 -6 5 -6 7 0
12 -5 12 -12 0 -6 10 -23 23 -37 17 -20 18 -22 2 -11 -19 15 -19 15 0 -12 11
-15 23 -28 28 -28 4 0 7 -9 7 -20 0 -11 5 -20 10 -20 6 0 10 -10 10 -22 0 -19
2 -20 10 -8 8 13 10 12 11 -5 1 -11 1 -23 0 -27 0 -5 3 -8 9 -8 5 0 10 -8 10
-17 0 -9 3 -14 6 -10 4 3 16 -13 28 -36 12 -24 27 -41 35 -39 11 2 12 0 3 -11
-9 -11 -7 -16 13 -27 13 -7 22 -17 19 -22 -3 -4 0 -8 5 -8 6 0 10 -3 10 -7 -3
-21 3 -33 17 -33 8 0 12 -4 9 -10 -3 -5 3 -17 15 -27 11 -10 20 -23 20 -30 0
-7 8 -13 18 -13 14 0 15 -2 2 -10 -13 -8 -12 -10 3 -10 9 0 17 -5 17 -10 0 -6
11 -23 24 -37 14 -15 23 -29 22 -32 -2 -3 2 -12 10 -19 8 -7 14 -9 14 -5 0 4
9 -7 20 -24 11 -18 24 -33 30 -33 5 0 10 -7 10 -15 0 -9 6 -18 14 -21 8 -3 16
-15 19 -26 4 -14 11 -19 22 -14 9 3 13 2 10 -4 -3 -6 1 -13 10 -16 13 -5 13
-9 3 -23 -7 -9 -8 -13 -4 -9 5 4 15 0 23 -10 10 -12 13 -12 8 -2 -3 8 0 7 7
-3 25 -37 86 -97 97 -97 6 0 11 -4 11 -10 0 -5 11 -20 25 -34 14 -14 25 -30
25 -35 0 -5 5 -13 12 -17 7 -5 8 -3 3 7 -5 8 1 5 13 -5 12 -11 22 -26 22 -35
0 -13 2 -13 9 -2 7 11 10 9 16 -8 3 -11 11 -21 16 -21 12 0 55 -43 51 -52 -2
-7 3 -8 23 -8 3 0 21 -15 41 -35 19 -19 39 -35 44 -35 6 0 10 -7 10 -16 0 -8
4 -13 9 -10 11 7 53 -29 44 -38 -3 -3 0 -6 9 -6 18 0 64 -39 60 -51 -1 -5 1
-8 5 -8 20 3 34 -3 58 -26 14 -14 25 -23 25 -19 0 4 12 -6 26 -22 15 -16 23
-23 20 -17 -5 9 -2 11 8 7 9 -3 14 -10 11 -14 -3 -4 6 -11 20 -14 14 -4 25
-13 25 -22 0 -8 4 -13 9 -10 5 3 14 -1 21 -9 7 -8 16 -13 20 -10 4 3 10 -2 14
-10 3 -8 12 -15 21 -15 8 0 15 -4 15 -10 0 -5 7 -10 15 -10 9 0 18 -7 21 -15
4 -8 10 -12 15 -9 5 3 9 0 9 -6 0 -6 4 -9 9 -6 5 3 12 -1 15 -10 4 -9 13 -14
21 -10 13 5 19 -5 16 -26 0 -4 6 -5 14 -2 8 4 15 1 15 -6 0 -10 3 -10 15 0 13
10 15 9 15 -9 0 -12 4 -20 9 -17 4 3 17 -1 27 -9 10 -8 27 -15 37 -15 10 0 16
-4 13 -9 -3 -5 1 -12 10 -15 10 -4 13 -2 9 7 -4 6 0 4 8 -5 8 -10 19 -18 26
-18 6 0 11 -4 11 -10 0 -5 7 -7 15 -4 9 4 15 0 15 -10 0 -9 5 -16 11 -16 5 0
7 5 4 11 -4 6 2 5 14 -3 12 -7 21 -16 21 -20 0 -5 6 -8 14 -8 8 0 17 -6 19
-12 4 -10 6 -10 6 0 1 8 8 6 23 -8 12 -11 31 -20 42 -20 12 0 27 -9 33 -19 7
-11 20 -18 30 -17 10 2 24 -4 31 -13 8 -9 11 -11 8 -4 -5 8 0 8 19 0 14 -7 25
-15 25 -19 0 -5 7 -8 16 -8 9 0 33 -10 52 -22 23 -14 33 -17 27 -7 -6 11 -5
12 6 2 7 -7 21 -13 32 -13 11 0 15 -4 11 -11 -5 -8 1 -10 19 -7 16 3 25 1 24
-6 -1 -6 9 -12 23 -14 14 -2 32 -10 41 -18 9 -8 19 -11 22 -8 4 4 14 1 24 -7
11 -9 14 -10 9 -2 -5 9 -2 11 8 7 9 -3 13 -11 9 -17 -4 -6 0 -8 10 -4 10 3 17
3 17 -2 0 -5 11 -7 25 -6 18 2 25 -2 25 -13 0 -15 2 -15 10 -2 6 10 10 11 10
3 0 -8 13 -13 29 -13 16 0 31 -6 34 -14 4 -9 14 -12 28 -9 14 4 20 2 16 -4 -5
-7 6 -10 27 -9 19 1 34 -1 34 -4 -1 -17 4 -19 23 -9 17 9 20 8 14 -2 -6 -9 -2
-11 13 -7 12 4 25 1 29 -4 4 -7 1 -8 -7 -3 -8 5 -11 4 -7 -1 3 -6 23 -11 43
-12 21 -2 42 -8 46 -15 6 -9 8 -8 8 3 1 13 2 12 10 -1 6 -11 20 -15 40 -13 17
2 29 0 26 -4 -3 -5 0 -9 7 -10 43 -6 73 -10 77 -12 10 -5 26 -7 53 -8 20 -2
26 -6 21 -14 -5 -9 -2 -9 9 1 13 10 20 11 31 2 8 -7 32 -13 54 -14 23 0 38 -5
35 -11 -4 -5 1 -7 10 -3 10 4 17 1 17 -6 0 -8 4 -6 10 3 5 8 10 10 10 3 0 -6
9 -9 20 -6 13 3 20 0 20 -8 0 -11 2 -11 10 1 9 13 10 13 10 0 0 -12 2 -12 9
-2 7 11 9 11 13 0 4 -9 24 -13 62 -13 31 0 56 -3 56 -8 0 -5 6 -4 14 2 11 9
16 9 22 0 5 -8 3 -9 -6 -4 -8 5 -11 4 -7 -3 7 -11 32 -11 43 0 10 11 34 -3 27
-16 -4 -6 1 -5 10 3 14 11 17 11 17 0 0 -11 2 -11 10 1 8 12 10 12 10 1 0 -10
3 -11 14 -2 10 9 16 9 21 1 4 -6 15 -8 25 -5 12 4 22 -1 29 -12 10 -17 10 -17
11 0 0 16 3 16 36 2 33 -13 35 -13 24 0 -11 13 -10 14 4 9 9 -3 16 -10 16 -15
0 -5 962 -9 2235 -9 1648 0 2235 3 2235 11 0 8 5 7 15 -1 13 -11 14 -10 10 1
-3 9 1 15 12 15 10 1 27 5 37 9 15 7 17 5 11 -6 -8 -12 -6 -12 8 0 9 7 14 18
10 25 -4 6 0 6 9 -2 13 -10 19 -10 32 3 9 9 16 13 16 9 0 -3 7 -1 15 6 8 6 20
8 26 4 8 -5 9 -3 4 6 -6 10 -4 12 8 7 11 -4 17 -1 17 8 0 8 3 14 8 13 4 -1 17
3 28 10 12 6 24 8 28 5 3 -3 6 1 6 11 0 9 5 14 10 11 6 -3 10 -1 10 6 0 7 3
10 6 6 4 -3 13 1 21 9 8 8 19 12 24 9 5 -4 6 1 3 9 -6 15 6 21 31 16 5 -1 7 2
3 6 -8 7 29 44 44 44 5 0 7 4 4 8 -3 5 8 19 25 32 16 14 29 31 29 38 0 7 7 15
15 18 8 4 12 10 9 15 -3 5 2 9 10 9 9 0 16 9 16 21 0 13 4 18 13 13 6 -4 9 -4
5 1 -4 4 -2 15 5 23 10 13 9 15 -3 8 -8 -4 -5 2 8 13 13 11 24 33 26 48 1 17
7 27 15 25 9 -2 11 3 7 13 -3 9 0 26 8 37 8 11 12 27 9 36 -5 11 -3 13 8 7 12
-7 12 -6 1 7 -9 12 -10 18 -2 23 7 4 10 16 7 26 -3 10 0 22 5 26 7 3 8 1 4 -5
-4 -7 -2 -12 3 -12 14 0 14 13 -1 28 -9 9 -9 12 0 12 9 0 12 982 12 4389 l0
4390 -236 1 c-178 0 -240 -3 -252 -12 -10 -8 -13 -9 -9 -1 10 16 -212 17 -232
0 -10 -8 -13 -9 -8 0 10 16 -212 16 -232 0 -11 -9 -13 -9 -8 0 11 18 -449 19
-471 1 -9 -8 -13 -8 -9 -2 5 9 -33 12 -139 13 -111 1 -143 -2 -138 -11 10 -16
11 -98 2 -98 -4 0 -4 -11 1 -23 5 -13 6 -30 1 -37 -5 -7 -4 -24 1 -37 5 -13 5
-23 0 -23 -5 0 -5 -16 -1 -35 5 -21 4 -38 -2 -41 -5 -4 -5 -10 1 -17 12 -15
12 -27 0 -49 -7 -12 -6 -18 1 -18 7 0 8 -6 1 -17 -5 -10 -5 -26 0 -40 5 -13 5
-23 0 -23 -5 0 -5 -16 -1 -35 5 -21 4 -38 -2 -41 -5 -3 -4 -12 4 -21 7 -9 11
-19 10 -22 -19 -32 -22 -41 -12 -41 7 0 8 -6 1 -19 -6 -10 -8 -21 -5 -23 9 -9
9 -378 0 -378 -5 0 -4 -6 2 -13 6 -7 7 -18 2 -27 -4 -7 -4 -24 1 -37 5 -14 5
-23 -1 -23 -6 0 -6 -9 -1 -23 5 -13 6 -30 1 -37 -5 -7 -4 -24 1 -37 5 -13 5
-23 0 -23 -5 0 -5 -15 -1 -34 4 -19 4 -39 0 -46 -4 -7 -4 -27 0 -46 5 -21 4
-34 -2 -34 -7 0 -7 -4 0 -12 13 -16 13 -28 1 -50 -7 -12 -6 -18 1 -18 7 0 8
-6 1 -17 -5 -10 -5 -26 0 -40 5 -13 5 -23 0 -23 -5 0 -7 -8 -5 -17 8 -31 9
-423 2 -423 -4 0 -4 -11 1 -23 5 -13 6 -30 1 -37 -5 -7 -4 -24 1 -37 5 -13 5
-23 0 -23 -5 0 -5 -16 -1 -35 5 -21 4 -38 -2 -41 -5 -4 -5 -10 1 -17 12 -15
12 -27 0 -49 -7 -12 -6 -18 1 -18 7 0 8 -6 1 -17 -5 -10 -5 -26 0 -40 5 -13 5
-23 0 -23 -5 0 -5 -16 -1 -35 5 -21 4 -38 -2 -41 -5 -3 -4 -12 4 -21 7 -9 11
-19 10 -22 -19 -32 -22 -41 -12 -41 7 0 8 -6 1 -19 -6 -10 -8 -21 -5 -23 9 -9
9 -378 0 -378 -5 0 -4 -6 2 -13 6 -7 7 -18 2 -27 -4 -7 -4 -24 1 -37 5 -14 5
-23 -1 -23 -6 0 -6 -9 -1 -23 5 -13 6 -30 1 -37 -5 -7 -4 -24 1 -37 5 -13 5
-23 0 -23 -5 0 -5 -15 -1 -34 4 -19 4 -39 0 -46 -4 -7 -4 -27 0 -46 5 -21 4
-34 -2 -34 -6 0 -4 -7 3 -17 8 -9 12 -19 11 -22 -19 -32 -22 -41 -12 -41 7 0
8 -6 1 -17 -5 -10 -5 -26 0 -40 5 -13 5 -23 0 -23 -5 0 -7 -8 -5 -17 8 -31 9
-423 2 -423 -4 0 -4 -11 1 -23 5 -13 6 -30 1 -37 -5 -7 -4 -24 1 -37 5 -13 5
-23 0 -23 -5 0 -5 -16 -1 -35 5 -21 4 -38 -2 -41 -5 -4 -5 -10 1 -17 12 -15
12 -27 0 -49 -7 -12 -6 -18 1 -18 7 0 8 -6 1 -17 -5 -10 -5 -26 0 -40 5 -13 5
-23 0 -23 -5 0 -5 -16 -1 -35 5 -21 4 -38 -2 -41 -5 -3 -4 -12 4 -21 7 -9 11
-19 10 -22 -19 -32 -22 -41 -12 -41 7 0 8 -6 1 -19 -6 -10 -8 -21 -5 -23 8 -8
10 -398 2 -398 -4 0 -4 -11 1 -23 5 -13 6 -30 1 -37 -5 -7 -4 -24 1 -37 5 -13
5 -23 0 -23 -5 0 -5 -16 -1 -35 5 -21 4 -38 -2 -41 -5 -4 -5 -10 1 -17 12 -15
12 -27 0 -49 -7 -12 -6 -18 1 -18 7 0 8 -6 1 -17 -5 -10 -5 -26 0 -40 5 -13 5
-23 0 -23 -5 0 -5 -16 -1 -35 5 -21 4 -38 -2 -41 -5 -3 -4 -12 4 -21 7 -9 11
-19 10 -22 -19 -32 -22 -41 -12 -41 7 0 8 -6 1 -19 -6 -10 -8 -21 -5 -23 8 -9
11 -78 2 -78 -4 0 -4 -11 1 -23 5 -13 6 -30 1 -37 -5 -7 -4 -24 1 -37 5 -13 5
-23 0 -23 -5 0 -5 -16 -1 -35 5 -21 4 -38 -2 -41 -5 -3 -4 -12 4 -21 7 -9 11
-19 10 -22 -19 -32 -22 -41 -12 -41 7 0 8 -6 1 -17 -5 -10 -5 -26 0 -40 5 -13
5 -23 0 -23 -5 0 -5 -16 -1 -35 5 -21 4 -38 -2 -41 -5 -4 -5 -10 1 -17 12 -15
12 -27 0 -49 -7 -12 -6 -18 1 -18 7 0 8 -6 1 -19 -6 -10 -8 -21 -5 -23 8 -9
11 -78 2 -78 -4 0 -4 -11 1 -23 5 -13 6 -30 1 -37 -5 -7 -4 -24 1 -37 5 -13 5
-23 0 -23 -5 0 -5 -16 -1 -35 5 -21 4 -38 -2 -41 -5 -3 -4 -12 4 -21 7 -9 13
-17 12 -17 -13 -16 -22 -46 -14 -46 7 0 8 -6 1 -17 -5 -10 -5 -26 0 -40 5 -13
5 -23 0 -23 -5 0 -5 -16 -1 -35 5 -21 4 -38 -2 -41 -5 -4 -5 -10 1 -17 15 -19
15 -21 2 -45 -8 -15 -8 -22 -1 -22 7 0 8 -6 1 -19 -6 -10 -8 -21 -5 -23 8 -9
11 -78 2 -78 -4 0 -4 -11 1 -23 5 -13 6 -30 1 -37 -5 -7 -4 -24 1 -37 5 -13 5
-23 0 -23 -5 0 -5 -16 -1 -35 4 -20 4 -38 -1 -41 -5 -3 -6 -11 -2 -17 11 -17
11 -29 1 -50 -6 -11 -5 -17 2 -17 7 0 8 -6 1 -17 -5 -10 -5 -26 0 -40 5 -13 5
-23 0 -23 -5 0 -5 -16 -1 -35 5 -21 4 -38 -2 -41 -5 -4 -5 -10 1 -17 12 -15
12 -27 0 -49 -7 -12 -6 -18 1 -18 7 0 8 -6 1 -17 -5 -9 -6 -26 -3 -37 4 -12 5
-102 2 -201 -3 -99 -7 -173 -8 -165 -2 12 -4 12 -11 2 -4 -8 -12 -14 -17 -15
-5 -1 -8 -6 -6 -11 2 -5 -4 -4 -12 4 -19 15 -21 24 -4 14 7 -4 8 -3 4 5 -4 6
-13 8 -19 4 -20 -12 -41 -12 -56 0 -11 9 -13 9 -8 0 5 -8 -2 -11 -22 -11 -19
1 -28 5 -24 12 5 8 2 8 -8 0 -8 -6 -42 -10 -76 -9 -34 1 -60 -2 -57 -6 3 -5
-2 -6 -10 -3 -9 3 -13 11 -9 18 4 6 -1 5 -10 -3 -9 -7 -14 -18 -10 -25 4 -6
-1 -5 -10 3 -19 15 -23 26 -5 15 7 -4 8 -3 4 5 -4 6 -13 8 -19 4 -20 -12 -41
-12 -56 0 -11 9 -13 9 -8 0 5 -8 -2 -11 -22 -11 -19 1 -28 5 -24 12 5 8 3 8
-8 0 -8 -6 -42 -10 -76 -9 -35 1 -60 -1 -57 -6 3 -5 -2 -6 -10 -3 -9 3 -13 11
-9 18 4 6 -1 5 -10 -3 -9 -7 -14 -18 -10 -25 4 -6 -1 -5 -10 3 -19 15 -23 26
-5 15 7 -4 8 -3 4 5 -4 6 -13 8 -19 4 -20 -12 -41 -12 -56 0 -11 9 -13 9 -8 0
5 -8 -2 -11 -22 -11 -19 1 -28 5 -24 12 5 8 2 8 -8 0 -8 -6 -42 -10 -76 -9
-34 1 -60 -1 -58 -5 2 -4 -7 -5 -20 -2 -15 2 -22 9 -18 16 3 6 0 6 -8 -1 -7
-7 -19 -13 -27 -13 -7 0 -10 6 -7 13 4 6 -1 3 -9 -7 -9 -11 -16 -14 -16 -8 0
7 -9 12 -20 12 -14 0 -18 -5 -14 -17 5 -17 5 -17 -6 0 -8 12 -18 15 -37 11
-20 -6 -24 -4 -18 7 6 11 5 12 -6 2 -7 -7 -19 -13 -27 -13 -7 0 -10 6 -7 13 4
6 -1 3 -9 -7 -9 -11 -16 -14 -16 -8 0 7 -9 12 -20 12 -14 0 -18 -5 -13 -17 5
-16 4 -15 -9 1 -9 11 -20 16 -27 12 -6 -4 -19 -2 -28 6 -14 10 -15 10 -9 0 6
-10 -1 -12 -34 -7 -33 5 -40 3 -34 -7 6 -10 5 -11 -8 -1 -8 7 -18 10 -21 6 -4
-3 -13 -1 -20 6 -11 9 -17 8 -26 -2 -6 -8 -7 -18 -3 -23 4 -4 -1 -2 -10 5 -20
15 -24 26 -6 15 7 -4 8 -3 4 5 -4 6 -13 8 -19 4 -20 -12 -41 -12 -56 0 -12 10
-13 9 -7 -1 6 -10 -1 -12 -34 -7 -33 5 -40 3 -34 -7 6 -10 5 -11 -8 -1 -8 7
-18 10 -21 6 -4 -3 -13 -1 -20 6 -11 9 -17 8 -26 -2 -6 -8 -7 -18 -3 -23 4 -4
-1 -2 -10 5 -20 15 -24 26 -6 15 7 -4 8 -3 4 5 -4 6 -13 8 -19 4 -20 -12 -41
-12 -56 0 -12 10 -13 9 -7 -1 6 -10 -1 -12 -34 -7 -24 4 -40 2 -36 -3 3 -5 -1
-9 -9 -9 -8 0 -12 4 -9 9 3 4 -11 5 -31 2 -29 -4 -36 -3 -30 8 6 10 5 11 -6 1
-7 -7 -19 -13 -27 -13 -7 0 -10 6 -7 13 4 6 -1 3 -9 -7 -9 -11 -16 -14 -16 -8
0 7 -9 12 -20 12 -14 0 -18 -5 -14 -17 5 -17 5 -17 -6 0 -8 12 -18 15 -37 11
-20 -6 -24 -4 -18 7 6 11 5 12 -6 2 -7 -7 -19 -13 -27 -13 -7 0 -10 6 -7 13 4
6 -1 3 -9 -7 -9 -11 -16 -14 -16 -8 0 7 -9 12 -20 12 -14 0 -18 -5 -13 -17 5
-12 0 -10 -16 6 -18 18 -25 20 -37 11 -7 -7 -11 -17 -7 -24 4 -6 -1 -5 -10 3
-19 15 -23 26 -5 15 7 -4 8 -3 4 5 -4 6 -13 8 -19 4 -20 -12 -41 -12 -56 0
-11 9 -13 9 -8 0 5 -8 -2 -11 -22 -11 -19 1 -28 5 -24 12 5 8 3 8 -8 0 -8 -6
-42 -10 -76 -9 -35 1 -60 -1 -57 -6 3 -5 -2 -6 -10 -3 -9 3 -13 11 -9 18 4 6
-1 5 -10 -3 -9 -7 -14 -18 -10 -25 4 -6 -1 -5 -10 3 -19 15 -23 26 -5 15 7 -4
8 -3 4 5 -4 6 -13 8 -19 4 -20 -12 -41 -12 -56 0 -11 9 -13 9 -8 0 5 -8 -2
-11 -22 -11 -19 1 -28 5 -24 12 5 8 2 8 -8 0 -8 -6 -42 -10 -76 -9 -34 1 -60
-2 -57 -6 3 -5 -2 -6 -10 -3 -9 3 -13 11 -10 18 3 6 -3 1 -14 -11 -17 -19 -21
-20 -26 -7 -4 10 -2 13 6 8 7 -4 8 -3 4 5 -4 6 -13 8 -19 4 -19 -12 -118 -12
-110 0 4 6 1 7 -8 2 -19 -12 -49 -14 -49 -3 0 5 -8 4 -19 -1 -10 -6 -21 -8
-24 -4 -12 11 -72 11 -86 0 -12 -10 -13 -9 -7 1 6 10 1 13 -20 12 -47 -3 -56
-1 -48 13 5 8 2 8 -9 -2 -14 -11 -17 -11 -17 0 0 11 -2 11 -10 -1 -9 -13 -10
-13 -10 0 0 9 -3 11 -8 5 -8 -12 -32 -13 -49 -2 -7 5 -17 6 -22 2 -5 -3 -12
-1 -15 3 -3 5 -17 8 -31 7 -14 -2 -25 0 -25 4 0 4 -8 7 -17 8 -91 5 -102 7
-96 17 3 6 3 8 -2 4 -4 -4 -17 -2 -29 4 -20 11 -20 10 -6 -8 11 -14 8 -14 -10
3 -18 16 -30 19 -40 13 -19 -12 -33 -13 -26 -1 3 5 -3 11 -14 14 -11 3 -18 1
-14 -4 3 -5 -2 -6 -10 -3 -9 3 -16 11 -16 18 0 6 -5 4 -10 -4 -6 -9 -10 -11
-10 -3 0 7 -7 10 -17 6 -11 -5 -14 -3 -8 6 6 10 3 11 -14 2 -16 -9 -19 -9 -16
2 3 7 -2 13 -12 14 -69 3 -91 8 -86 20 3 7 0 13 -6 13 -6 0 -11 -5 -11 -11 0
-8 -4 -8 -15 1 -8 6 -18 9 -23 6 -5 -3 -20 1 -35 9 -14 7 -28 11 -31 7 -3 -3
-6 -1 -6 5 0 6 -8 13 -17 16 -10 2 -27 8 -37 13 -14 5 -17 4 -12 -4 4 -7 5
-12 1 -12 -3 0 -10 10 -15 23 -7 18 -9 18 -9 4 -1 -10 -6 -15 -11 -12 -6 4 -7
11 -4 17 5 7 1 9 -9 5 -10 -3 -17 -2 -17 4 0 6 -5 7 -10 4 -6 -3 -24 4 -42 16
-17 13 -29 18 -25 12 5 -8 0 -8 -18 0 -14 7 -25 15 -25 20 0 4 -12 7 -26 7
-17 0 -23 4 -18 13 5 7 1 7 -12 -3 -10 -8 -16 -10 -12 -6 10 12 -22 35 -49 36
-13 0 -23 4 -23 9 0 7 -18 17 -90 47 -3 1 -15 5 -27 9 -13 4 -23 12 -23 17 0
5 -5 6 -10 3 -6 -3 -10 -1 -10 4 0 6 -7 11 -15 11 -8 0 -24 9 -36 21 -11 11
-27 18 -35 15 -8 -3 -14 1 -14 10 0 8 -5 12 -10 9 -6 -3 -10 -1 -10 5 0 6 -5
8 -10 5 -6 -3 -10 -3 -10 2 0 9 -62 47 -72 45 -5 -1 -8 5 -8 13 0 8 -5 15 -11
15 -5 0 -7 -6 -4 -12 4 -7 -3 -2 -16 12 -12 14 -26 24 -31 22 -5 -1 -11 5 -14
13 -3 8 -10 12 -15 9 -5 -3 -9 3 -9 12 0 10 -3 15 -6 11 -6 -5 -30 12 -67 48
-11 12 -17 14 -13 5 4 -8 -4 -3 -18 13 -14 15 -30 27 -36 27 -6 0 -9 4 -5 9 3
6 -4 15 -15 21 -27 15 -80 67 -80 80 0 5 -6 9 -12 8 -7 -2 -12 3 -10 10 1 6
-4 12 -11 12 -14 0 -47 35 -47 50 0 6 -7 10 -15 10 -8 0 -15 4 -15 8 0 16 -97
112 -105 105 -5 -5 -3 1 5 12 8 11 11 17 6 13 -12 -10 -39 20 -30 33 4 8 3 9
-4 5 -7 -4 -17 3 -23 18 -7 14 -22 33 -35 41 -13 8 -21 21 -18 29 3 7 -2 16
-10 19 -9 4 -16 13 -16 22 0 8 -5 15 -11 15 -5 0 -7 5 -4 10 3 6 -1 10 -10 10
-9 0 -14 4 -10 9 3 5 -2 16 -11 25 -8 9 -13 20 -9 25 3 5 -4 12 -14 16 -12 4
-18 12 -14 20 3 8 -2 17 -10 21 -9 3 -18 13 -21 21 -5 12 -3 13 7 7 7 -5 5 -2
-5 8 -11 10 -16 23 -11 34 4 11 3 15 -4 11 -6 -4 -17 1 -24 10 -8 9 -9 14 -2
10 8 -5 8 -1 0 17 -7 13 -15 22 -18 20 -4 -2 -10 3 -13 12 -3 8 -2 12 4 9 6
-3 7 1 4 9 -3 9 -9 16 -13 16 -3 0 -12 9 -19 21 -11 17 -11 20 0 13 7 -4 2 5
-12 20 -14 15 -24 29 -22 32 7 13 0 44 -9 38 -7 -4 -10 1 -7 12 2 11 -4 26
-12 34 -9 8 -10 11 -3 6 10 -6 12 -4 7 8 -3 9 -11 16 -16 16 -6 0 -8 7 -4 15
3 8 1 15 -5 15 -6 0 -9 6 -6 13 2 6 -3 17 -12 24 -11 8 -12 12 -3 13 10 0 10
4 0 19 -7 11 -15 18 -18 16 -3 -2 -6 6 -7 18 -1 48 -3 58 -12 52 -6 -3 -8 4
-6 15 2 11 -2 20 -8 20 -7 0 -6 4 3 10 11 7 11 10 2 10 -7 0 -10 5 -7 10 3 6
1 10 -6 10 -8 0 -7 5 2 17 10 11 10 14 1 9 -13 -8 -14 -6 -16 41 -1 18 -6 36
-11 40 -4 5 -5 2 0 -6 5 -8 4 -12 -2 -8 -5 3 -8 20 -7 36 1 17 -3 31 -8 31 -6
0 -7 7 -4 16 3 8 1 25 -5 36 -7 12 -7 18 -1 14 15 -9 9 19 -8 40 -13 16 -13
17 0 9 12 -7 13 -6 4 6 -16 21 -24 59 -12 59 6 0 4 8 -5 18 -13 14 -14 21 -5
30 9 9 9 12 -1 12 -9 0 -11 8 -7 26 5 18 3 24 -5 19 -8 -6 -8 -2 0 13 6 12 7
23 2 26 -4 3 -7 17 -6 31 2 14 -1 25 -6 25 -5 0 -9 5 -9 11 0 5 4 8 8 5 11 -6
9 51 -2 61 -5 5 -6 2 -1 -6 6 -10 4 -12 -4 -6 -9 5 -10 10 -2 18 8 8 6 15 -4
27 -13 14 -13 17 0 17 8 0 11 -5 8 -10 -3 -6 -1 -7 6 -3 8 6 9 12 2 20 -6 7
-7 17 -3 21 4 5 1 5 -5 1 -8 -4 -13 -1 -13 9 0 10 5 14 13 9 9 -6 9 -4 0 7
-16 17 -17 43 -1 33 7 -5 8 -3 2 7 -5 8 -10 25 -12 37 -2 17 1 22 10 16 8 -5
7 1 -4 17 -10 16 -13 31 -8 39 5 8 5 19 -1 26 -7 8 -6 14 1 19 6 3 7 11 3 18
-9 15 -10 57 -1 57 4 0 4 11 -1 23 -5 13 -6 30 -1 37 4 7 5 22 1 33 -4 10 -4
41 -1 68 4 27 4 49 0 49 -8 0 -5 43 4 58 4 7 2 12 -4 12 -7 0 -8 6 -1 17 5 10
5 26 0 40 -5 14 -4 25 2 29 7 4 6 10 -1 19 -8 9 -8 15 0 20 6 3 7 11 3 18 -9
15 -10 57 -1 57 4 0 4 11 -1 23 -5 13 -6 30 -1 37 4 7 5 22 1 33 -4 10 -4 41
-1 68 4 27 4 49 0 49 -8 0 -5 43 4 58 4 7 2 12 -4 12 -7 0 -8 6 -1 17 5 10 5
26 0 40 -5 14 -4 25 2 29 7 4 6 10 -1 19 -8 9 -8 15 0 20 6 3 7 11 3 18 -9 15
-10 57 -1 57 4 0 4 11 -1 23 -5 13 -6 30 -1 37 4 7 6 19 3 26 -9 23 -8 134 1
134 5 0 4 6 -2 13 -7 8 -7 18 -2 27 5 9 5 19 -2 27 -7 9 -7 13 2 13 9 0 9 4 2
13 -7 8 -7 18 -2 27 5 9 5 19 -2 27 -7 9 -7 13 2 13 9 0 9 4 2 13 -7 8 -7 18
-2 27 5 9 5 19 -2 27 -7 9 -7 13 2 13 9 0 9 4 2 13 -7 8 -7 18 -2 27 5 9 5 19
-2 27 -7 9 -7 13 2 13 9 0 9 4 2 13 -7 8 -7 18 -2 27 5 9 5 19 -2 27 -7 9 -7
13 2 13 9 0 9 4 2 13 -7 8 -7 18 -2 27 5 9 5 19 -2 27 -7 9 -7 13 2 13 9 0 9
4 2 13 -7 8 -7 18 -2 27 5 9 5 19 -2 27 -8 10 -7 13 3 13 10 0 10 3 1 12 -6 6
-8 18 -3 27 9 19 8 32 -2 48 -4 6 -3 14 3 18 6 4 7 11 3 18 -9 15 -10 57 -1
57 4 0 4 11 -1 23 -5 13 -6 30 -1 37 4 7 5 22 1 33 -4 10 -4 41 -1 68 4 27 4
49 0 49 -8 0 -5 43 4 58 4 7 2 12 -4 12 -7 0 -8 6 -1 17 5 10 5 26 0 40 -5 14
-4 25 2 29 7 4 6 10 -1 19 -8 9 -8 15 0 20 6 3 7 11 3 18 -9 15 -10 57 -1 57
4 0 4 11 -1 23 -5 13 -6 30 -1 37 4 7 5 22 1 33 -4 10 -4 41 -1 68 4 27 4 49
0 49 -8 0 -5 43 4 58 4 7 2 12 -4 12 -7 0 -8 6 -1 17 5 10 5 26 0 40 -5 14 -4
25 2 29 7 4 6 10 -1 19 -8 9 -8 15 0 20 6 3 7 11 3 18 -9 15 -10 57 -1 57 4 0
4 11 -1 23 -5 13 -6 30 -1 37 4 7 6 19 3 26 -9 23 -8 134 1 134 5 0 4 6 -2 13
-7 8 -7 18 -2 27 5 9 5 19 -2 27 -7 9 -7 13 2 13 9 0 9 4 2 13 -7 8 -7 18 -2
27 5 9 5 19 -2 27 -7 9 -7 13 2 13 9 0 9 4 2 13 -7 8 -7 18 -2 27 5 9 5 19 -2
27 -7 9 -7 13 2 13 9 0 9 4 2 13 -7 8 -7 18 -2 27 5 9 5 19 -2 27 -7 9 -7 13
2 13 9 0 9 4 2 13 -7 8 -7 18 -2 27 5 9 5 19 -2 27 -7 9 -7 13 2 13 9 0 9 4 2
13 -7 8 -7 18 -2 27 5 9 5 19 -2 27 -7 9 -7 13 2 13 9 0 9 4 2 13 -7 8 -7 18
-2 27 5 9 5 19 -2 27 -8 10 -7 13 3 13 10 0 10 3 1 12 -10 10 -8 19 10 49 1 3
-3 13 -10 22 -9 10 -10 17 -2 22 6 3 7 11 3 18 -9 15 -10 57 -1 57 4 0 4 11
-1 23 -5 13 -6 30 -1 37 4 7 5 22 1 33 -4 10 -4 41 -1 68 4 27 4 49 0 49 -8 0
-5 43 4 58 4 7 2 12 -4 12 -7 0 -8 6 -1 17 5 10 5 26 0 40 -5 14 -4 25 2 29 7
4 6 10 -1 19 -8 9 -8 15 0 20 6 3 7 11 3 18 -9 15 -10 57 -1 57 4 0 4 11 -1
23 -5 13 -6 30 -1 37 4 7 5 22 1 33 -4 10 -4 41 -1 68 4 27 3 49 0 49 -9 0 -5
44 5 59 3 6 1 11 -5 11 -7 0 -8 6 -2 18 5 9 6 26 2 37 -4 11 -4 31 0 45 13 46
-4 50 -203 50 -132 0 -187 -3 -196 -12 -9 -8 -11 -9 -7 -1 9 16 -213 16 -233
0 -10 -8 -13 -9 -8 0 10 16 -212 16 -232 0 -11 -9 -13 -9 -8 0 11 18 -449 19
-471 1 -10 -8 -13 -9 -9 -1 10 16 -212 17 -232 0 -12 -9 -13 -9 -8 0 6 9 -9
12 -57 11 l-64 -1 0 -104z"/>
<path d="M5480 8502 c-5 -2 -8 -8 -4 -13 3 -5 -5 -9 -17 -9 -17 0 -19 -3 -10
-14 10 -12 8 -13 -8 -9 -13 3 -21 1 -21 -6 0 -7 -4 -9 -10 -6 -5 3 -10 1 -10
-5 0 -6 -4 -8 -10 -5 -9 5 -14 -7 -12 -26 1 -4 -4 -6 -11 -6 -31 1 -47 -4 -47
-14 0 -5 5 -7 12 -3 7 5 8 3 4 -5 -5 -7 -14 -10 -22 -7 -7 3 -18 -3 -23 -12
-6 -9 -11 -12 -11 -7 0 6 -5 3 -10 -5 -5 -8 -14 -16 -20 -16 -5 -1 -15 -2 -21
-3 -5 0 -7 -5 -4 -11 3 -5 -1 -10 -9 -10 -9 0 -16 -4 -16 -10 0 -5 -4 -9 -9
-7 -5 1 -17 -7 -26 -18 -9 -11 -14 -14 -10 -7 3 6 2 12 -4 12 -5 0 -13 -9 -16
-20 -4 -11 -11 -18 -16 -15 -5 4 -9 1 -9 -4 0 -6 -8 -11 -19 -11 -10 0 -26
-11 -35 -25 -9 -14 -22 -23 -27 -19 -6 3 -17 -3 -25 -15 -8 -12 -21 -21 -28
-21 -17 0 -77 -45 -71 -53 3 -4 2 -5 -1 -2 -4 2 -16 -1 -28 -7 -11 -7 -24 -11
-28 -10 -4 1 -5 -5 -2 -13 4 -10 0 -15 -14 -15 -11 0 -22 -7 -26 -15 -3 -8
-15 -15 -26 -15 -11 0 -23 -7 -26 -15 -4 -8 -12 -15 -20 -15 -8 0 -14 -5 -14
-11 0 -5 -4 -7 -10 -4 -5 3 -10 -2 -10 -12 0 -15 -2 -16 -10 -3 -8 13 -10 13
-10 -2 0 -9 -5 -20 -12 -24 -7 -5 -8 -2 -3 7 5 8 -3 3 -18 -10 -15 -13 -31
-20 -38 -16 -8 6 -10 4 -5 -4 5 -8 0 -14 -13 -18 -12 -3 -21 -9 -21 -14 0 -5
-9 -9 -21 -9 -11 0 -18 -4 -14 -9 5 -9 -32 -27 -46 -23 -4 1 -6 -6 -5 -16 0
-10 -5 -16 -13 -14 -7 1 -20 -5 -28 -15 -8 -10 -11 -12 -7 -4 5 9 3 12 -4 7
-7 -4 -12 -14 -12 -21 0 -9 -6 -12 -15 -9 -8 4 -15 1 -15 -5 0 -6 -7 -11 -16
-11 -8 0 -12 -4 -9 -10 3 -5 -2 -10 -13 -10 -10 0 -27 -9 -37 -20 -10 -11 -24
-20 -30 -20 -7 0 -16 -7 -19 -16 -3 -8 -10 -12 -16 -9 -5 3 -10 1 -10 -4 0 -6
-7 -11 -16 -11 -10 0 -14 -5 -10 -15 4 -13 2 -14 -14 -5 -11 6 -20 7 -19 3 4
-22 -2 -32 -16 -27 -8 4 -15 1 -15 -5 0 -6 -7 -11 -16 -11 -8 0 -12 -4 -9 -10
3 -5 -3 -10 -14 -10 -11 0 -27 -9 -35 -21 -8 -12 -19 -18 -25 -14 -6 3 -11 0
-11 -8 0 -7 -16 -19 -35 -27 -19 -7 -32 -17 -29 -22 3 -4 -2 -8 -10 -8 -9 0
-16 -4 -16 -10 0 -5 -7 -10 -15 -10 -8 0 -15 -5 -15 -10 0 -6 -4 -9 -9 -8 -5
2 -17 -6 -26 -17 -9 -11 -14 -14 -10 -7 9 18 1 15 -29 -13 -15 -14 -34 -25
-42 -25 -8 0 -12 -4 -9 -10 3 -5 0 -10 -8 -10 -7 0 -23 -9 -35 -20 -12 -11
-25 -21 -29 -23 -5 -1 -7 -5 -6 -9 2 -4 -3 -5 -11 -2 -7 3 -16 -2 -19 -10 -4
-9 -13 -16 -20 -16 -8 0 -26 -11 -41 -25 -14 -13 -26 -21 -26 -17 0 4 -7 -1
-14 -11 -8 -10 -17 -18 -20 -18 -21 3 -26 0 -20 -11 5 -8 2 -9 -9 -5 -10 4
-16 2 -14 -6 1 -7 -6 -11 -17 -9 -14 3 -17 -1 -12 -13 3 -9 2 -13 -4 -10 -6 3
-10 0 -10 -7 0 -9 -3 -9 -10 2 -8 13 -10 12 -10 -3 0 -9 -3 -16 -7 -15 -15 3
-43 -14 -37 -23 3 -5 2 -9 -3 -8 -24 4 -43 -3 -43 -16 0 -13 -19 -20 -43 -16
-5 1 -6 -3 -2 -9 4 -6 -7 -16 -24 -23 -17 -7 -28 -17 -24 -21 4 -4 -1 -4 -12
0 -15 6 -17 4 -12 -10 4 -10 3 -15 -3 -11 -10 6 -22 -2 -62 -40 -11 -11 -18
-14 -13 -7 6 11 3 11 -13 1 -12 -7 -18 -17 -15 -23 4 -5 -1 -7 -10 -3 -9 3
-18 0 -21 -9 -3 -8 -10 -14 -16 -14 -17 0 -40 -26 -32 -36 4 -5 -2 -2 -12 6
-13 10 -17 10 -12 3 4 -8 1 -13 -9 -13 -10 0 -13 -5 -9 -12 5 -8 2 -9 -9 -5
-11 4 -17 1 -17 -8 0 -8 -7 -15 -15 -15 -8 0 -24 -10 -36 -22 -12 -13 -19 -16
-15 -8 5 9 2 9 -7 -2 -8 -10 -17 -15 -20 -11 -4 3 -9 -2 -13 -11 -3 -9 -12
-16 -20 -16 -8 0 -14 -5 -14 -10 0 -6 -4 -9 -9 -8 -5 2 -17 -6 -26 -17 -9 -11
-14 -13 -10 -5 4 9 1 8 -8 -3 -8 -10 -21 -16 -28 -15 -9 2 -13 -4 -11 -16 2
-11 -1 -15 -7 -11 -6 3 -18 0 -26 -7 -33 -30 -41 -34 -54 -30 -8 3 -11 0 -7
-6 4 -7 -4 -14 -19 -18 -13 -3 -22 -10 -19 -15 3 -5 -2 -9 -11 -9 -8 0 -18 -6
-21 -14 -3 -8 -11 -13 -19 -10 -7 3 -15 -2 -19 -11 -4 -11 -12 -15 -22 -11
-11 4 -18 -1 -21 -14 -3 -11 -9 -17 -14 -14 -5 3 -12 -2 -15 -10 -3 -9 -12
-16 -20 -16 -8 0 -14 -5 -14 -11 0 -5 -4 -7 -10 -4 -6 3 -10 1 -10 -6 0 -7 -3
-9 -6 -6 -4 4 -15 -3 -25 -14 -10 -12 -23 -18 -30 -13 -7 4 -10 3 -6 -2 3 -5
-2 -18 -10 -29 -15 -19 -15 -19 -9 -1 5 16 4 17 -9 6 -8 -7 -12 -16 -9 -21 5
-8 -9 -13 -28 -10 -5 0 -7 -2 -5 -7 1 -4 -8 -17 -21 -30 -13 -13 -20 -28 -16
-35 4 -7 4 -9 -1 -5 -10 10 -37 -11 -29 -23 3 -5 0 -9 -6 -9 -6 0 -15 -11 -20
-25 -5 -14 -13 -25 -18 -25 -5 0 -7 -12 -4 -26 3 -19 1 -25 -7 -20 -6 4 -11 1
-11 -8 0 -9 -5 -16 -10 -16 -7 0 -7 -6 -1 -18 6 -12 6 -23 -1 -33 -8 -11 -9
-10 -4 4 3 10 2 16 -3 13 -5 -3 -7 -56 -6 -118 3 -116 6 -142 18 -154 12 -12
8 -26 -5 -18 -7 4 -8 3 -4 -4 4 -7 14 -12 23 -12 13 0 13 -3 3 -15 -9 -10 -9
-15 -1 -15 6 0 11 -7 11 -15 0 -8 5 -15 10 -15 6 0 10 -9 10 -21 0 -11 5 -17
10 -14 6 3 10 -3 10 -15 0 -12 5 -18 10 -15 6 3 10 -4 10 -16 0 -12 3 -20 6
-17 3 3 24 -11 46 -33 22 -21 45 -36 49 -33 5 3 6 -3 2 -13 -3 -10 -3 -15 2
-11 4 4 14 0 22 -10 8 -9 11 -11 7 -3 -5 9 2 7 18 -5 14 -10 24 -22 21 -26 -2
-4 3 -5 11 -2 9 4 18 -1 22 -10 3 -9 12 -16 20 -16 8 0 22 -9 31 -20 13 -14
19 -16 25 -7 5 8 8 4 8 -11 0 -14 4 -21 11 -17 6 4 20 -3 31 -15 12 -13 26
-19 36 -15 9 3 13 3 10 -1 -10 -9 20 -36 32 -29 6 4 9 1 8 -7 -2 -7 7 -14 20
-16 12 -2 22 -7 22 -12 0 -4 9 -10 20 -13 11 -3 20 -13 20 -24 0 -15 2 -16 10
-3 8 13 10 13 10 -1 0 -9 7 -16 15 -17 8 -1 21 -3 29 -4 8 -1 12 -7 9 -15 -3
-8 3 -13 17 -13 11 0 18 -4 15 -10 -3 -5 1 -10 10 -10 9 0 26 -10 37 -22 11
-13 16 -16 12 -8 -7 12 -5 13 8 3 8 -7 18 -9 22 -5 4 4 6 1 4 -6 -2 -8 12 -22
29 -32 18 -9 39 -23 47 -30 9 -6 20 -9 26 -5 6 4 10 3 9 -2 -1 -4 -1 -15 0
-23 1 -12 3 -13 10 -1 7 11 10 9 16 -8 3 -12 11 -19 16 -16 5 4 21 -7 36 -22
14 -15 23 -22 19 -15 -12 20 8 14 24 -7 7 -11 17 -18 22 -15 4 3 8 -2 8 -10 0
-9 7 -13 20 -11 11 2 20 -2 20 -8 0 -7 9 -18 21 -25 17 -11 20 -11 13 0 -6 10
-4 10 9 -1 9 -7 14 -18 10 -25 -4 -6 2 -4 12 4 10 8 16 10 12 4 -4 -7 0 -17 8
-24 8 -7 15 -9 15 -4 0 5 5 1 11 -8 5 -10 19 -18 30 -18 11 0 17 -4 14 -10 -3
-5 1 -10 9 -10 9 0 16 -5 16 -11 0 -5 4 -8 9 -5 5 3 14 -1 21 -9 7 -8 19 -15
26 -15 8 0 14 -4 14 -10 0 -5 7 -10 15 -10 8 0 15 -8 15 -17 0 -15 2 -16 10
-3 8 13 10 12 10 -3 0 -10 5 -15 10 -12 6 3 10 1 10 -6 0 -7 3 -9 6 -6 4 4 15
-3 25 -15 11 -11 19 -16 19 -10 0 6 10 1 23 -11 13 -12 22 -25 20 -29 -2 -4 3
-5 11 -2 9 3 16 1 16 -6 0 -6 5 -8 10 -5 6 3 10 1 10 -4 0 -6 7 -11 15 -11 8
0 15 -4 15 -10 0 -5 7 -10 15 -10 8 0 15 -4 15 -8 0 -5 12 -15 28 -23 15 -8
35 -22 45 -33 9 -10 17 -14 17 -7 0 6 14 -2 31 -19 18 -16 37 -30 43 -30 6 0
17 -9 24 -20 7 -11 21 -20 32 -20 11 0 20 -5 20 -11 0 -5 5 -7 10 -4 6 3 10 2
10 -4 0 -6 11 -13 25 -17 14 -3 23 -9 21 -13 -3 -4 4 -13 16 -20 15 -9 18 -10
13 0 -6 8 -4 10 4 5 7 -5 10 -14 7 -22 -7 -17 6 -18 22 -2 9 9 12 8 12 -6 0
-9 4 -15 8 -12 5 3 21 -8 36 -25 15 -16 34 -29 42 -29 8 0 14 -5 14 -11 0 -5
5 -7 10 -4 6 3 10 1 10 -5 0 -6 5 -8 10 -5 6 3 10 1 10 -4 0 -6 7 -11 16 -11
8 0 12 -4 9 -10 -3 -5 3 -10 15 -10 11 0 23 -7 26 -15 4 -8 10 -12 15 -9 5 3
12 -2 15 -11 4 -9 13 -14 20 -11 8 3 11 0 8 -9 -4 -10 0 -13 16 -10 13 2 20 2
17 -2 -9 -9 21 -34 43 -36 13 -1 19 -6 15 -15 -2 -7 0 -10 5 -7 6 4 18 -2 28
-12 9 -11 13 -12 7 -3 -5 8 4 3 20 -11 17 -14 38 -29 48 -32 11 -4 15 -12 11
-18 -5 -8 -3 -9 6 -4 7 4 15 4 19 -1 8 -12 54 -41 65 -42 5 0 13 -7 18 -16 5
-9 18 -16 29 -16 11 0 17 -4 14 -10 -3 -5 1 -10 10 -10 10 0 13 -5 9 -12 -5
-7 -2 -9 9 -5 10 4 21 -3 32 -19 9 -14 20 -22 24 -19 5 2 20 -5 35 -16 14 -11
26 -18 26 -14 0 3 10 -3 22 -15 12 -11 26 -20 30 -20 5 0 7 -4 3 -9 -3 -6 3
-8 15 -6 11 2 23 -1 26 -7 5 -7 2 -8 -6 -3 -9 5 -11 4 -6 -3 4 -7 15 -12 25
-12 10 0 26 -10 35 -22 9 -13 14 -16 11 -8 -5 11 -3 11 7 -2 8 -9 33 -26 56
-38 23 -12 40 -26 37 -30 -3 -5 0 -12 6 -16 8 -4 9 -3 5 4 -4 7 -1 12 8 12 9
0 15 -6 13 -12 -1 -7 6 -12 16 -11 10 0 16 -1 13 -4 -7 -7 20 -33 34 -33 11 0
23 -9 59 -41 9 -8 23 -13 29 -11 7 2 12 -4 12 -13 0 -9 4 -14 9 -10 5 3 15 -1
23 -8 37 -37 30 -37 1248 -37 792 0 1189 4 1185 10 -4 6 -11 8 -16 5 -5 -4 -9
-1 -9 6 0 7 -3 9 -7 6 -4 -4 -20 5 -36 20 -17 16 -26 22 -22 14 5 -9 -2 -7
-18 5 -15 10 -27 22 -27 26 0 4 -7 5 -15 2 -11 -5 -13 -2 -9 10 4 12 2 15 -9
11 -8 -4 -17 1 -20 9 -4 9 -14 16 -22 16 -10 0 -13 5 -9 13 5 7 2 7 -10 -2
-15 -12 -17 -12 -14 0 2 8 -3 13 -9 12 -7 -2 -13 2 -13 8 0 5 -4 8 -9 5 -5 -3
-11 4 -14 15 -3 12 -10 18 -17 14 -6 -4 -19 2 -29 14 -10 11 -20 18 -23 16 -3
-3 -11 1 -18 10 -7 8 -19 15 -27 15 -8 0 -11 4 -8 10 3 6 -3 10 -14 10 -12 0
-21 7 -21 15 0 8 -3 14 -7 13 -17 -4 -53 14 -47 24 4 6 3 8 -3 5 -5 -4 -19 3
-31 13 -12 11 -26 20 -32 20 -6 0 -13 7 -17 16 -5 13 -7 13 -14 2 -7 -10 -9
-8 -9 6 0 11 -3 17 -6 13 -4 -3 -13 1 -21 9 -8 8 -19 11 -25 8 -7 -4 -8 -2 -4
4 4 7 1 12 -9 12 -10 0 -13 5 -9 12 4 6 3 8 -4 4 -6 -3 -17 1 -25 9 -9 8 -26
15 -39 15 -18 0 -20 2 -8 10 13 8 13 10 -2 10 -9 0 -18 4 -20 9 -1 5 -10 11
-18 13 -21 4 -39 22 -33 32 3 4 -5 5 -17 1 -15 -5 -20 -4 -16 4 4 6 1 11 -8
11 -8 0 -18 5 -22 12 -5 7 -2 8 7 3 8 -5 11 -4 6 1 -5 5 -13 10 -18 10 -5 1
-14 2 -20 3 -5 0 -7 5 -4 11 3 6 -1 7 -9 4 -10 -4 -16 -1 -16 7 0 7 -3 10 -6
6 -3 -3 -17 5 -31 19 -13 13 -29 22 -34 19 -5 -4 -9 -1 -9 4 0 6 -7 11 -16 11
-8 0 -13 4 -10 9 7 11 -22 23 -36 14 -6 -3 -8 -2 -5 4 4 6 -5 15 -18 21 -14 7
-25 16 -25 22 0 6 -4 9 -9 5 -5 -3 -16 2 -24 10 -9 8 -21 15 -27 15 -6 0 -8 4
-5 10 3 5 0 7 -8 4 -8 -3 -17 2 -20 10 -4 9 -13 16 -22 16 -8 0 -15 6 -15 14
0 9 -7 13 -20 11 -11 -2 -23 1 -26 7 -5 7 -2 8 7 4 8 -4 5 0 -5 8 -11 9 -24
16 -29 16 -4 0 -15 7 -23 15 -8 8 -21 12 -28 9 -9 -3 -13 1 -13 13 2 13 -6 19
-26 21 -15 2 -25 8 -22 13 4 5 -1 9 -9 9 -9 0 -16 5 -16 10 0 6 -7 10 -15 10
-8 0 -15 5 -15 10 0 6 -9 10 -20 10 -12 0 -20 7 -20 16 0 10 -6 14 -15 10 -8
-3 -15 -1 -15 5 0 5 -11 14 -25 21 -13 6 -22 15 -18 21 3 6 1 7 -5 4 -15 -10
-42 3 -42 20 0 8 -4 11 -10 8 -5 -3 -10 -1 -10 5 0 6 -4 9 -9 5 -5 -3 -21 6
-35 20 -14 14 -26 22 -26 18 0 -4 -5 0 -11 9 -5 10 -21 18 -34 18 -15 0 -24 5
-22 13 1 6 -4 11 -10 10 -7 -2 -13 1 -13 6 0 5 -13 14 -30 21 -16 7 -27 16
-24 21 3 5 -4 9 -15 9 -11 0 -25 8 -30 18 -6 9 -11 13 -11 9 0 -4 -10 1 -22
13 -12 11 -28 20 -35 20 -7 0 -13 5 -13 11 0 5 -4 8 -9 5 -5 -3 -11 1 -15 9
-3 8 -12 15 -21 15 -8 0 -15 5 -15 10 0 6 -9 10 -19 10 -11 0 -23 9 -26 20 -4
11 -10 18 -15 15 -5 -3 -18 3 -30 15 -12 12 -20 15 -20 8 0 -9 -3 -8 -9 2 -6
8 -7 18 -5 22 3 4 -2 5 -11 2 -9 -4 -23 2 -34 15 -10 11 -26 21 -35 21 -10 0
-14 4 -11 10 3 6 -4 10 -15 10 -15 0 -20 5 -17 14 4 10 -1 13 -18 11 -14 -1
-22 2 -19 6 5 8 -10 13 -29 10 -5 -1 -6 3 -2 9 3 5 1 10 -5 10 -6 0 -8 4 -5
10 3 6 -1 7 -9 4 -9 -4 -18 1 -22 10 -3 9 -10 13 -15 10 -5 -3 -12 2 -15 10
-3 9 -10 14 -14 11 -5 -3 -11 -1 -15 5 -4 6 -11 8 -16 5 -5 -4 -9 1 -9 10 0 9
-4 13 -10 10 -5 -3 -10 -1 -10 4 0 6 -6 11 -13 11 -7 0 -19 9 -27 19 -7 11
-17 18 -21 15 -4 -2 -10 0 -14 6 -4 6 -11 7 -17 4 -7 -5 -9 -1 -5 9 4 11 2 14
-9 10 -7 -3 -14 0 -14 6 0 6 -7 11 -15 11 -8 0 -15 5 -15 10 0 6 -7 10 -15 10
-8 0 -15 4 -15 9 0 5 -13 14 -30 21 -16 7 -30 16 -30 21 0 5 -7 9 -15 9 -8 0
-15 5 -15 11 0 5 -4 7 -10 4 -5 -3 -10 1 -10 9 0 10 -6 13 -15 10 -10 -4 -15
0 -15 12 0 16 -2 17 -10 4 -8 -13 -10 -13 -10 2 0 12 -5 15 -17 11 -11 -4 -14
-3 -9 5 6 11 1 14 -20 11 -3 0 -14 10 -25 22 -10 12 -19 18 -19 13 0 -5 -5 -1
-11 9 -5 9 -19 17 -30 17 -11 0 -22 7 -25 15 -4 8 -10 13 -14 10 -5 -3 -12 4
-15 15 -5 17 -10 19 -21 9 -13 -11 -18 -4 -16 22 1 3 -6 6 -14 7 -7 1 -21 3
-29 4 -8 1 -12 5 -9 10 3 4 -1 8 -9 8 -8 0 -18 7 -21 16 -4 9 -13 14 -21 10
-9 -3 -15 0 -15 10 0 8 -4 12 -10 9 -5 -3 -10 -1 -10 4 0 6 -5 11 -11 11 -17
0 -59 37 -51 45 4 3 3 6 -3 4 -18 -4 -65 20 -72 37 -5 13 -7 13 -14 2 -7 -10
-9 -9 -9 5 0 15 -11 22 -32 18 -5 0 -8 4 -8 10 0 5 -4 7 -10 4 -5 -3 -10 1
-10 10 0 9 -4 13 -10 10 -5 -3 -10 -1 -10 5 0 6 -4 9 -9 6 -5 -3 -11 1 -15 9
-3 9 -12 12 -22 8 -11 -4 -15 -3 -10 5 3 6 -3 16 -14 22 -11 6 -20 8 -20 4 0
-4 -9 3 -20 16 -11 13 -20 19 -20 15 0 -5 -7 0 -16 11 -8 10 -12 12 -8 4 4 -8
-5 -2 -19 13 -15 15 -32 25 -37 22 -6 -3 -10 1 -10 9 0 9 -7 13 -20 11 -23 -4
-27 10 -6 22 8 4 16 13 18 18 2 6 6 9 11 7 4 -1 7 3 7 9 0 5 5 7 10 4 6 -3 10
-1 10 6 0 7 3 9 7 6 3 -4 16 4 27 16 12 13 27 22 34 19 7 -2 15 3 18 12 3 9
12 16 20 16 7 0 18 8 23 18 6 9 11 13 11 8 0 -4 9 2 21 15 11 13 18 17 14 9
-4 -8 2 -5 12 8 15 18 21 20 31 10 8 -7 13 -8 12 -3 -5 21 0 36 10 30 6 -3 10
-1 10 6 0 7 3 9 6 6 4 -4 15 3 25 14 10 12 23 18 30 13 8 -5 9 -3 4 6 -6 10
-4 12 8 7 10 -4 16 -2 14 5 -1 7 4 12 11 13 8 0 19 8 26 17 7 10 16 15 19 11
4 -3 7 -1 7 6 0 7 5 9 10 6 6 -3 13 0 16 8 3 8 13 18 22 21 33 12 62 33 55 39
-3 4 1 7 10 7 9 0 17 5 17 12 0 6 3 9 6 5 4 -3 12 -1 20 6 36 33 45 37 56 31
8 -5 9 -2 5 9 -3 9 -3 16 1 15 16 -3 41 15 35 26 -5 7 -2 7 8 -1 12 -10 18 -9
31 7 9 10 14 21 11 23 -3 3 3 4 13 3 18 -3 53 24 47 36 -2 4 2 10 8 14 8 4 9
3 5 -4 -4 -7 -2 -12 3 -12 6 0 11 5 11 10 0 6 11 15 25 20 14 5 25 14 25 20 0
6 5 8 10 5 6 -3 17 0 25 9 11 11 12 16 2 20 -6 3 -2 3 9 1 14 -4 24 0 28 11 4
9 12 14 22 10 8 -3 12 -2 9 4 -3 6 1 13 9 16 9 3 13 11 9 18 -5 7 -2 7 8 -1
12 -10 17 -8 28 8 7 12 18 18 27 15 9 -3 12 -1 9 4 -3 6 6 15 20 20 14 5 24
14 20 19 -3 6 4 8 16 6 12 -2 19 -2 15 2 -9 9 32 35 44 28 6 -4 9 -1 8 7 -2 7
5 12 14 12 10 -1 15 2 12 7 -3 5 3 12 13 16 10 4 27 15 38 25 10 10 25 16 32
14 7 -3 12 0 10 7 -1 7 4 11 11 9 6 -1 12 5 12 13 0 8 3 14 8 13 13 -3 47 16
65 37 10 11 15 14 11 6 -5 -9 -3 -12 4 -7 7 4 12 14 12 22 0 8 3 13 8 12 17
-5 52 14 52 28 0 8 5 12 11 9 6 -4 17 1 24 11 8 11 15 15 15 11 0 -4 6 -2 14
5 8 7 12 16 10 20 -2 3 4 5 13 4 10 -2 26 6 35 16 10 12 22 17 29 12 8 -4 9
-3 5 4 -6 9 41 43 59 42 10 0 50 45 47 53 -1 5 2 6 7 3 13 -8 42 4 35 15 -3 5
2 9 11 9 9 0 23 7 32 15 8 8 19 12 25 9 7 -4 8 -2 4 4 -4 7 -2 12 4 12 6 0 8
4 5 10 -3 6 1 7 9 4 9 -4 18 1 22 10 3 9 9 14 14 11 11 -7 71 41 62 50 -4 4 5
6 20 3 15 -3 27 -2 26 1 -2 17 3 31 10 30 21 -4 32 2 26 13 -5 7 -2 9 7 6 16
-6 41 16 31 28 -4 4 -2 4 5 0 7 -4 21 2 33 14 11 11 23 21 27 23 5 1 7 5 6 9
-2 4 6 5 17 3 12 -2 21 3 26 17 4 13 12 18 25 15 10 -3 17 -2 15 1 -4 7 25 38
34 36 11 -3 40 23 33 30 -4 4 0 4 10 0 11 -4 19 0 23 10 3 9 10 14 14 11 5 -3
15 3 22 12 7 10 20 19 28 21 8 2 20 9 25 16 6 7 16 11 24 8 9 -3 12 0 9 10 -4
8 0 15 8 16 8 1 20 3 28 4 8 1 12 7 9 15 -3 8 2 13 12 13 10 0 27 10 39 23 12
13 27 22 34 19 7 -2 12 1 12 7 0 6 7 11 16 11 8 0 12 5 9 10 -3 6 3 10 14 10
11 0 32 15 46 33 15 17 24 26 20 20 -3 -7 -3 -13 2 -13 13 0 35 17 34 26 0 5
7 8 15 8 8 -1 14 2 14 7 0 5 11 14 25 19 14 5 25 15 25 21 0 6 7 8 16 5 8 -3
12 -2 9 4 -3 6 2 10 11 10 10 0 14 3 11 7 -9 8 43 34 54 27 5 -3 9 -2 8 3 -3
19 2 31 14 29 6 0 13 3 14 8 3 16 27 25 35 13 5 -8 8 -6 8 5 0 10 10 20 25 24
14 3 25 12 25 20 0 7 6 11 13 8 7 -2 24 7 36 20 13 14 29 23 34 19 6 -4 8 0 4
10 -4 12 -1 15 14 12 15 -3 19 0 15 11 -3 8 -1 12 4 9 5 -3 20 1 33 10 13 8
27 12 31 8 4 -4 4 1 0 11 -5 14 -4 17 4 12 7 -4 12 -2 12 4 0 6 5 8 10 5 6 -3
10 -1 10 4 0 6 7 11 16 11 8 0 13 4 9 9 -3 5 5 13 17 17 13 3 40 20 61 36 20
16 37 26 37 21 0 -4 5 0 11 10 5 9 16 17 23 17 8 0 19 7 26 15 7 8 17 12 23 8
6 -3 7 -1 3 5 -7 11 6 17 27 13 5 -1 6 3 2 9 -3 5 1 10 10 10 9 0 13 5 10 10
-5 9 16 15 38 11 5 -1 6 3 2 9 -3 5 1 10 9 10 9 0 16 5 16 10 0 6 8 10 18 10
14 0 15 2 2 10 -8 5 -10 10 -4 10 5 0 16 -6 23 -12 11 -11 13 -8 9 15 -4 21
-2 25 7 17 9 -8 15 -8 20 0 7 12 8 11 -30 15 -16 1 -36 -2 -42 -7 -9 -7 -13
-7 -13 1 0 6 -5 11 -11 11 -5 0 -7 -5 -3 -12 5 -7 3 -8 -6 -3 -20 12 -64 13
-72 1 -5 -7 -8 -6 -8 4 0 13 -1 13 -10 0 -6 -10 -10 -11 -10 -2 0 6 -5 12 -11
12 -5 0 -7 -5 -3 -12 4 -7 3 -8 -4 -4 -19 12 -53 16 -47 5 4 -5 2 -9 -4 -9 -5
0 -11 6 -14 13 -3 9 -7 9 -20 -2 -11 -9 -17 -10 -17 -2 0 6 -5 11 -11 11 -5 0
-7 -5 -3 -12 5 -7 3 -8 -6 -3 -20 13 -70 14 -70 1 0 -7 -4 -6 -9 2 -11 17 -21
17 -32 0 -5 -7 -9 -8 -9 -2 0 14 -30 14 -30 0 0 -6 -4 -5 -9 2 -4 8 -12 14
-16 14 -4 0 -12 -6 -16 -14 -7 -10 -9 -10 -9 0 0 6 -4 12 -10 12 -5 0 -7 -8
-4 -17 5 -15 4 -15 -4 -4 -13 18 -52 22 -69 9 -9 -7 -13 -7 -13 1 0 6 -5 11
-11 11 -5 0 -7 -5 -3 -12 5 -7 3 -8 -6 -3 -20 13 -70 14 -70 1 0 -7 -3 -7 -8
-1 -11 15 -32 17 -32 2 0 -9 -2 -9 -9 1 -4 8 -12 14 -16 14 -4 0 -12 -6 -16
-14 -7 -10 -9 -10 -9 2 0 13 -1 13 -10 0 -6 -10 -10 -11 -10 -2 0 6 -5 12 -11
12 -5 0 -7 -5 -3 -12 4 -7 3 -8 -4 -4 -19 12 -53 16 -47 5 4 -5 2 -9 -4 -9 -5
0 -11 6 -14 13 -3 9 -7 9 -20 -2 -11 -9 -17 -10 -17 -2 0 6 -5 11 -11 11 -5 0
-7 -5 -3 -12 5 -7 3 -8 -6 -3 -20 13 -70 14 -70 1 0 -7 -4 -6 -9 2 -4 8 -12
14 -16 14 -4 0 -12 -6 -16 -14 -5 -7 -9 -8 -9 -2 0 14 -30 14 -30 0 0 -6 -4
-5 -9 2 -4 8 -12 14 -16 14 -4 0 -12 -6 -16 -14 -7 -10 -9 -10 -9 0 0 6 -4 12
-10 12 -5 0 -7 -8 -4 -17 5 -15 4 -15 -4 -4 -13 18 -52 22 -69 9 -9 -7 -13 -7
-13 1 0 6 -5 11 -11 11 -5 0 -7 -5 -3 -12 5 -7 3 -8 -6 -3 -20 13 -70 14 -70
1 0 -7 -4 -6 -9 2 -4 8 -12 14 -16 14 -4 0 -12 -6 -16 -14 -7 -10 -9 -10 -9 0
0 6 -5 12 -11 12 -5 0 -7 -5 -3 -11 4 -7 -1 -7 -16 1 -15 8 -20 8 -16 1 4 -6
2 -11 -3 -11 -6 0 -11 5 -11 10 0 6 -5 10 -11 10 -5 0 -8 -4 -5 -8 3 -5 -1 -9
-9 -9 -8 0 -12 3 -10 7 2 3 -5 6 -15 6 -10 0 -16 -4 -14 -8 3 -4 0 -8 -5 -8
-6 0 -11 4 -11 9 0 5 -11 8 -25 7 -14 0 -25 -5 -25 -11 0 -5 -4 -4 -9 3 -4 8
-12 14 -16 14 -4 0 -12 -6 -16 -14 -5 -7 -9 -8 -9 -3 0 12 -69 13 -87 2 -8 -5
-13 -4 -13 2 0 6 -5 11 -11 11 -5 0 -7 -5 -3 -12 5 -7 3 -8 -6 -3 -20 13 -70
14 -70 1 0 -7 -4 -6 -9 2 -4 8 -12 14 -16 14 -4 0 -12 -6 -16 -14 -5 -7 -9 -8
-9 -2 0 13 -31 14 -47 1 -9 -6 -13 -6 -13 2 0 6 -5 11 -11 11 -5 0 -8 -4 -5
-8 3 -5 -1 -9 -9 -9 -8 0 -12 3 -10 7 2 3 -5 6 -15 6 -10 0 -16 -4 -14 -8 3
-4 0 -8 -5 -8 -6 0 -11 5 -11 10 0 6 -5 10 -11 10 -5 0 -7 -5 -3 -12 5 -7 3
-8 -6 -3 -17 10 -150 13 -144 3 3 -4 0 -8 -5 -8 -6 0 -11 5 -11 11 0 8 -6 7
-17 -2 -9 -8 -14 -9 -10 -3 3 6 0 11 -8 11 -8 0 -12 -4 -9 -9 3 -4 0 -8 -5 -8
-6 0 -11 4 -11 9 0 8 -47 10 -70 3z m55 -12 c-3 -5 -12 -10 -18 -10 -7 0 -6 4
3 10 19 12 23 12 15 0z m380 -8 c-3 -3 -11 0 -18 7 -9 10 -8 11 6 5 10 -3 15
-9 12 -12z"/>
<path d="M2245 3620 c3 -5 8 -10 11 -10 2 0 4 5 4 10 0 6 -5 10 -11 10 -5 0
-7 -4 -4 -10z"/>
<path d="M3950 2160 c0 -5 5 -10 11 -10 5 0 7 5 4 10 -3 6 -8 10 -11 10 -2 0
-4 -4 -4 -10z"/>
</g>
</svg>
