<?xml version="1.0" standalone="no"?>
<!DOCTYPE svg PUBLIC "-//W3C//DTD SVG 20010904//EN"
 "http://www.w3.org/TR/2001/REC-SVG-20010904/DTD/svg10.dtd">
<svg version="1.0" xmlns="http://www.w3.org/2000/svg"
 width="3420.000000pt" height="3420.000000pt" viewBox="0 0 3420.000000 3420.000000"
 preserveAspectRatio="xMidYMid meet">
<metadata>
Created by potrace 1.11, written by Peter Selinger 2001-2013
</metadata>
<g transform="translate(0.000000,3420.000000) scale(0.100000,-0.100000)"
fill="#000000" stroke="none">
<path d="M13675 29313 c-453 -11 -1008 -74 -1481 -168 -2271 -450 -4272 -1749
-5636 -3659 -868 -1214 -1433 -2677 -1608 -4161 -57 -491 -53 -214 -58 -4090
-3 -3619 -2 -3754 34 -4140 228 -2455 1445 -4697 3394 -6250 1347 -1074 2984
-1742 4690 -1914 467 -48 253 -46 6025 -46 5789 0 5536 -2 5885 46 874 121
1712 471 2405 1004 1121 863 1829 2133 1970 3535 9 85 19 252 22 370 5 179 3
233 -11 319 -74 440 -382 780 -814 899 l-97 27 -7340 5 c-6873 5 -7347 7
-7451 23 -366 56 -628 138 -926 289 -780 393 -1348 1132 -1522 1978 -59 288
-56 83 -56 3720 0 3629 -3 3430 55 3716 87 430 284 850 566 1206 99 124 331
358 449 452 471 374 1002 582 1598 626 104 8 2042 10 6633 8 l6486 -3 -49
-107 c-168 -375 -430 -726 -733 -987 -429 -369 -892 -581 -1480 -679 -92 -15
-523 -17 -5385 -22 -4952 -6 -5290 -7 -5370 -23 -289 -59 -523 -178 -726 -370
-218 -206 -364 -477 -422 -780 -16 -86 -17 -276 -17 -3022 0 -2822 1 -2933 19
-3015 47 -218 136 -387 285 -543 288 -301 709 -415 1111 -301 349 100 638 378
745 717 58 182 55 37 55 2683 l0 2434 4853 3 c4435 3 4863 4 4982 20 691 87
1203 239 1765 522 485 245 874 524 1263 904 614 601 1060 1339 1312 2166 190
626 279 1451 191 1788 -51 200 -158 379 -312 526 -188 180 -399 276 -663 301
-143 14 -14261 14 -14565 0 -385 -17 -671 -59 -1036 -150 -728 -182 -1426
-541 -2025 -1041 -150 -126 -432 -405 -573 -569 -684 -794 -1092 -1740 -1209
-2800 -17 -156 -18 -349 -18 -3660 0 -3311 1 -3504 18 -3660 134 -1214 654
-2285 1520 -3126 656 -638 1444 -1076 2327 -1293 247 -61 464 -97 800 -133 89
-9 1631 -13 6723 -17 l6608 -6 -81 -163 c-124 -248 -287 -482 -470 -677 -483
-515 -1085 -819 -1790 -907 -153 -19 -10884 -19 -11100 0 -626 55 -1136 158
-1670 338 -1440 487 -2693 1454 -3535 2729 -571 864 -932 1825 -1069 2848 -53
396 -51 202 -51 4067 0 3979 -4 3677 61 4130 256 1771 1214 3384 2664 4484
995 756 2211 1233 3435 1350 88 9 183 18 210 22 28 4 3394 9 7480 13 l7430 6
83 23 c46 13 116 37 155 53 437 181 706 604 684 1078 -8 164 -40 291 -111 436
-152 309 -406 510 -756 598 l-85 22 -7290 0 c-4009 1 -7339 0 -7400 -2z"/>
</g>
</svg>
